HIERARCHY
ROOT Hips
{
	OFFSET 0.000000 0.000000 0.000000
	CHANNELS 6 Xposition Yposition Zposition Xrotation Yrotation Zrotation
	JOINT Chest
	{
		OFFSET 0.000000 9.585900 0.002600
		CHANNELS 3 Xrotation Yrotation Zrotation
		JOINT Chest2
		{
			OFFSET 0.000000 9.601200 -0.005300
			CHANNELS 3 Xrotation Yrotation Zrotation
			JOINT Chest3
			{
				OFFSET 0.000000 9.561800 0.000000
				CHANNELS 3 Xrotation Yrotation Zrotation
				JOINT Chest4
				{
					OFFSET 0.000000 9.552100 0.000000
					CHANNELS 3 Xrotation Yrotation Zrotation
					JOINT Neck
					{
						OFFSET 0.000000 14.453000 0.000000
						CHANNELS 3 Xrotation Yrotation Zrotation
						JOINT Head
						{
							OFFSET 0.000000 8.936500 -0.011300
							CHANNELS 3 Xrotation Yrotation Zrotation
							End Site
							{
								OFFSET 0.000000 0.000000 0.000000
							}
						}
					}
					JOINT RightCollar
					{
						OFFSET -2.921100 9.558500 0.000000
						CHANNELS 3 Xrotation Yrotation Zrotation
						JOINT RightShoulder
						{
							OFFSET -13.519700 0.000000 0.000000
							CHANNELS 3 Xrotation Yrotation Zrotation
							JOINT RightElbow
							{
								OFFSET 0.000000 -29.696600 0.000000
								CHANNELS 3 Xrotation Yrotation Zrotation
								JOINT RightWrist
								{
									OFFSET 0.000000 -24.004700 0.000000
									CHANNELS 3 Xrotation Yrotation Zrotation
									End Site
									{
										OFFSET 0.000000 0.000000 0.000000
									}
								}
							}
						}
					}
					JOINT LeftCollar
					{
						OFFSET 2.921100 9.558500 0.000000
						CHANNELS 3 Xrotation Yrotation Zrotation
						JOINT LeftShoulder
						{
							OFFSET 13.519700 0.000000 0.000000
							CHANNELS 3 Xrotation Yrotation Zrotation
							JOINT LeftElbow
							{
								OFFSET 0.000000 -29.696600 0.000000
								CHANNELS 3 Xrotation Yrotation Zrotation
								JOINT LeftWrist
								{
									OFFSET 0.000000 -24.004700 0.000000
									CHANNELS 3 Xrotation Yrotation Zrotation
									End Site
									{
										OFFSET 0.000000 0.000000 0.000000
									}
								}
							}
						}
					}
				}
			}
		}
	}
	JOINT RightHip
	{
		OFFSET -7.771700 -0.012900 -0.001300
		CHANNELS 3 Xrotation Yrotation Zrotation
		JOINT RightKnee
		{
			OFFSET 0.000000 -40.869801 0.001200
			CHANNELS 3 Xrotation Yrotation Zrotation
			JOINT RightAnkle
			{
				OFFSET 0.000000 -39.717899 0.002100
				CHANNELS 3 Xrotation Yrotation Zrotation
				JOINT RightToe
				{
					OFFSET 0.000000 -4.965400 11.033500
					CHANNELS 3 Xrotation Yrotation Zrotation
					End Site
					{
						OFFSET 0.000000 0.000000 0.000000
					}
				}
			}
		}
	}
	JOINT LeftHip
	{
		OFFSET 7.771700 -0.012900 -0.001300
		CHANNELS 3 Xrotation Yrotation Zrotation
		JOINT LeftKnee
		{
			OFFSET 0.000000 -40.869801 0.001200
			CHANNELS 3 Xrotation Yrotation Zrotation
			JOINT LeftAnkle
			{
				OFFSET 0.000000 -39.717899 0.002100
				CHANNELS 3 Xrotation Yrotation Zrotation
				JOINT LeftToe
				{
					OFFSET 0.000000 -4.965400 11.033500
					CHANNELS 3 Xrotation Yrotation Zrotation
					End Site
					{
						OFFSET 0.000000 0.000000 0.000000
					}
				}
			}
		}
	}
}
MOTION
Frames: 17
Frame Time: 0.032
0.0 0.0 0.0 -172.770660 25.656957 178.667312 10.553857 4.499324 0.296335 0.076240 1.732377 -0.169368 3.369790 0.212287 0.499178 10.370446 0.489276 0.187892 16.148840 0.132279 -0.320280 -8.361676 3.809188 0.719781 1.994700 6.912929 1.891500 -32.452548 20.011532 -15.971052 -74.755806 -16.268034 44.838317 -3.434947 2.287602 -25.995700 0.090399 -6.610219 -5.208126 -18.111976 7.488385 6.889049 -73.285567 17.127294 -55.482200 23.216083 -11.316327 0.813574 -63.002478 -0.397979 5.173305 76.152504 -9.677582 1.296800 -9.139455 -2.948028 2.388648 0.715863 0.179123 0.160146 -63.569493 10.535193 13.520068 67.918165 13.711413 1.288911 -19.820471 -19.990063 -2.609551 -0.296274 -0.017453 -0.328603
0.0 0.0 0.0 -172.812788 25.670771 178.649704 10.535943 4.507135 0.341264 0.040030 1.718125 -0.186169 3.311604 0.204404 0.471641 10.308098 0.484109 0.162096 16.109435 0.125666 -0.313474 -8.389091 3.832178 0.730755 1.967260 6.871123 1.906426 -32.445673 19.785248 -15.902687 -75.008639 -16.475482 44.476744 -3.593135 2.250000 -26.019534 0.016588 -6.586205 -5.227799 -18.054077 7.740313 6.911465 -73.458780 17.479354 -55.320294 23.158530 -11.221568 0.760532 -63.000531 -0.430101 5.196471 76.147252 -9.662862 1.339427 -9.173069 -2.982396 2.406485 0.697186 0.183075 0.179144 -63.610563 10.525181 13.482914 67.894437 13.699097 1.353491 -19.821482 -19.969088 -2.624837 -0.328229 -0.014963 -0.320113
0.0 0.0 0.0 -172.763064 25.711728 178.640442 10.561855 4.514597 0.328670 0.063620 1.699776 -0.191869 3.325691 0.194965 0.470844 10.307300 0.482641 0.154124 16.138909 0.120514 -0.359244 -8.346482 3.844768 0.725525 2.051275 6.817316 1.904263 -32.307703 19.526771 -15.918227 -75.232266 -16.732901 44.215759 -3.673505 2.215911 -26.000307 0.018717 -6.579587 -5.238829 -17.875151 7.980116 6.952838 -73.705172 17.815321 -55.276960 23.149736 -11.160799 0.671466 -62.971769 -0.461036 5.171372 76.161554 -9.646102 1.318045 -9.144231 -3.022213 2.379991 0.741807 0.178600 0.172136 -63.589785 10.485946 13.464693 67.907585 13.699040 1.339545 -19.775541 -19.958892 -2.606324 -0.291679 -0.020939 -0.321083
0.0 0.0 0.0 -172.758597 25.748505 178.622779 10.569610 4.505819 0.320116 0.052680 1.660451 -0.196548 3.306389 0.167197 0.477794 10.269498 0.459382 0.151863 16.142081 0.084842 -0.401930 -8.341415 3.848008 0.744454 2.107632 6.750736 1.920278 -32.213819 19.238305 -15.935185 -75.511990 -17.039290 43.845064 -3.849747 2.135708 -26.017681 -0.014767 -6.587291 -5.264585 -17.748457 8.241133 7.021831 -73.897189 18.146802 -55.196859 23.127815 -11.128250 0.584758 -62.987506 -0.493272 5.173115 76.145462 -9.665804 1.320334 -9.158579 -3.085464 2.355568 0.753922 0.155898 0.175350 -63.603958 10.452660 13.468485 67.888413 13.673987 1.347534 -19.771048 -19.970300 -2.573682 -0.292652 -0.044678 -0.314954
0.0 0.0 0.0 -172.812214 25.765878 178.590240 10.528471 4.495417 0.324565 0.016958 1.633049 -0.228523 3.259400 0.151039 0.446562 10.203441 0.447589 0.111198 16.108455 0.064815 -0.429273 -8.370393 3.859915 0.751067 2.154298 6.701080 1.949241 -32.118179 18.952638 -15.886286 -75.800900 -17.329549 43.525958 -4.014303 2.104003 -26.013858 -0.063386 -6.576309 -5.318134 -17.594456 8.539918 6.992682 -74.168041 18.507033 -55.155509 23.058053 -11.103749 0.465462 -63.009199 -0.505613 5.185001 76.126051 -9.685855 1.338682 -9.184959 -3.133878 2.347471 0.736439 0.136515 0.176985 -63.638512 10.455416 13.450477 67.848476 13.653500 1.378002 -19.796310 -19.964687 -2.584198 -0.322633 -0.064443 -0.327721
0.0 0.0 0.0 -172.817337 25.825594 178.598163 10.564303 4.538634 0.328627 0.033619 1.649892 -0.216939 3.249176 0.182892 0.470557 10.182744 0.489425 0.126695 16.136076 0.104469 -0.446917 -8.356907 3.913391 0.784699 2.204186 6.704794 2.029092 -32.024274 18.616107 -15.830905 -76.124220 -17.607854 43.111293 -4.154523 2.080519 -25.989406 -0.068934 -6.512955 -5.348716 -17.421588 8.929506 7.019401 -74.408559 18.967825 -55.037203 23.014512 -11.024277 0.332889 -63.009315 -0.509893 5.209897 76.120942 -9.655529 1.352421 -9.166333 -3.139443 2.351332 0.761364 0.163627 0.196929 -63.647487 10.447426 13.488901 67.855792 13.707070 1.411499 -19.802667 -19.943416 -2.580847 -0.316559 -0.039376 -0.316626
0.0 0.0 0.0 -172.727069 25.814618 178.568438 10.595275 4.509090 0.285202 0.072535 1.602915 -0.190662 3.264255 0.166133 0.508440 10.160971 0.505237 0.141089 16.180675 0.079361 -0.538423 -8.330760 3.925535 0.738526 2.355365 6.579114 2.015618 -31.791170 17.871940 -15.950221 -76.656825 -18.323277 42.331320 -4.467053 1.896149 -25.884674 -0.062931 -6.491539 -5.318021 -17.160685 9.531130 7.164023 -74.735711 19.758296 -54.788058 22.799839 -10.863504 0.076219 -62.928814 -0.548419 5.205983 76.111953 -9.691527 1.316983 -9.119366 -3.224619 2.315135 0.799780 0.117840 0.158564 -63.576890 10.363617 13.462109 67.879082 13.681926 1.397249 -19.756239 -19.936646 -2.545436 -0.302687 -0.086610 -0.328532
0.0 0.0 0.0 -172.748748 25.809113 178.540421 10.565422 4.511685 0.297716 0.022705 1.577738 -0.186884 3.201018 0.158043 0.514859 10.074743 0.508177 0.139532 16.141916 0.068398 -0.562652 -8.372074 3.954673 0.749321 2.388478 6.505840 2.033522 -31.672274 17.455349 -15.909227 -77.124194 -18.733360 41.824598 -4.715005 1.831906 -25.838775 -0.157639 -6.468105 -5.326531 -17.005571 9.933529 7.188959 -75.101536 20.326706 -54.589846 22.663348 -10.772813 -0.050384 -62.936894 -0.554183 5.233557 76.074101 -9.699883 1.348900 -9.164416 -3.276756 2.318437 0.764514 0.105531 0.174231 -63.599047 10.348098 13.447790 67.846591 13.664108 1.434920 -19.778891 -19.899075 -2.512247 -0.356182 -0.098681 -0.316732
0.0 0.0 0.0 -172.737397 25.832277 178.511966 10.539322 4.509228 0.279580 0.011110 1.555947 -0.234121 3.172691 0.150008 0.475812 10.031382 0.506098 0.093898 16.136288 0.055643 -0.616925 -8.371457 3.978918 0.744330 2.440716 6.448067 2.037026 -31.544272 17.112636 -15.895903 -77.512723 -19.070826 41.403545 -4.888387 1.779045 -25.846945 -0.191964 -6.439565 -5.404835 -16.858647 10.269656 7.163718 -75.327335 20.771703 -54.528720 22.575729 -10.713074 -0.192236 -62.927960 -0.554826 5.218843 76.075289 -9.704515 1.347779 -9.177212 -3.318247 2.287126 0.766629 0.101966 0.162239 -63.591103 10.339583 13.398783 67.842206 13.646967 1.438002 -19.775498 -19.858502 -2.530620 -0.363391 -0.103707 -0.341047
0.0 0.0 0.0 -172.709693 25.781821 178.473321 10.526845 4.503506 0.236045 0.004244 1.564499 -0.183507 3.173470 0.176516 0.544374 9.998514 0.546073 0.148070 16.146383 0.078515 -0.651004 -8.405366 3.996567 0.699329 2.549756 6.420526 2.030981 -31.419932 16.780306 -15.949149 -77.915492 -19.425751 40.973472 -5.056182 1.711440 -25.758049 -0.205385 -6.393160 -5.341224 -16.715971 10.642298 7.264002 -75.577894 21.210299 -54.327342 22.457624 -10.663283 -0.307733 -62.894957 -0.518158 5.253440 76.031801 -9.736242 1.338548 -9.182139 -3.333761 2.280310 0.730354 0.076107 0.125633 -63.549624 10.346430 13.422506 67.818519 13.658351 1.427066 -19.794284 -19.828174 -2.470130 -0.408675 -0.128320 -0.351052
0.0 0.0 0.0 -172.661213 25.814215 178.513346 10.541825 4.530657 0.206377 0.018075 1.552448 -0.191652 3.159736 0.171731 0.538433 9.974734 0.553689 0.130775 16.153401 0.063769 -0.741910 -8.362163 4.050990 0.666397 2.611888 6.368484 1.943825 -31.210529 16.485942 -16.003610 -78.274589 -19.776645 40.595253 -5.183866 1.642893 -25.699895 -0.231604 -6.369977 -5.338580 -16.628026 10.956226 7.291375 -75.818952 21.699113 -54.362630 22.422338 -10.522525 -0.486260 -62.879152 -0.524242 5.194484 76.034567 -9.703897 1.299456 -9.165577 -3.373103 2.210860 0.781384 0.102209 0.096857 -63.561699 10.311163 13.383534 67.808807 13.639570 1.404548 -19.734191 -19.786899 -2.437741 -0.370141 -0.103436 -0.353455
0.0 0.0 0.0 -172.808212 25.829277 178.457776 10.421165 4.510713 0.253165 -0.062367 1.511486 -0.226691 3.051932 0.145988 0.497642 9.834703 0.543116 0.086400 16.088587 0.041255 -0.735548 -8.454835 4.079948 0.682643 2.594941 6.259069 2.004316 -31.132552 15.819999 -15.936553 -78.988986 -20.378382 39.837273 -5.503252 1.526085 -25.627237 -0.340027 -6.317719 -5.384787 -16.488784 11.589274 7.288957 -76.290365 22.549646 -54.089248 22.238708 -10.421887 -0.730230 -62.917824 -0.571181 5.269147 75.987630 -9.750203 1.370697 -9.218776 -3.460399 2.252090 0.719216 0.068169 0.122015 -63.639147 10.296995 13.360029 67.727835 13.630903 1.508632 -19.811606 -19.775858 -2.494170 -0.463774 -0.139502 -0.359412
0.0 0.0 0.0 -172.717507 25.832435 178.441629 10.416920 4.515862 0.221126 -0.054307 1.489339 -0.209748 3.031468 0.145067 0.528458 9.791097 0.573361 0.097144 16.115288 0.028882 -0.814104 -8.430216 4.128900 0.642169 2.682857 6.139742 1.989482 -30.917172 15.118723 -15.918318 -79.664185 -21.027659 39.108796 -5.736288 1.394509 -25.524212 -0.345364 -6.273042 -5.374441 -16.265751 12.171802 7.303444 -76.643636 23.361161 -53.904102 22.067064 -10.237630 -0.966798 -62.861871 -0.583440 5.249043 75.974216 -9.742835 1.345688 -9.188392 -3.525122 2.219381 0.752304 0.060893 0.101344 -63.591377 10.230818 13.316902 67.746884 13.627977 1.490735 -19.765893 -19.721413 -2.451206 -0.456201 -0.146193 -0.356386
0.0 0.0 0.0 -172.701921 25.840918 178.397602 10.393007 4.525732 0.231230 -0.070554 1.477654 -0.242904 2.991143 0.145746 0.505291 9.728892 0.596376 0.054044 16.095505 0.028615 -0.849925 -8.434519 4.183344 0.668429 2.750401 6.064384 2.045347 -30.739622 14.577172 -15.897955 -80.248002 -21.536097 38.489093 -5.913349 1.289780 -25.447062 -0.385190 -6.232849 -5.419071 -16.102857 12.686696 7.296998 -76.960372 24.023073 -53.729471 21.865667 -10.063714 -1.135486 -62.834885 -0.571048 5.249374 75.966252 -9.718245 1.358841 -9.185028 -3.572339 2.217482 0.759674 0.068027 0.126699 -63.563885 10.214883 13.269870 67.751911 13.644963 1.505995 -19.775232 -19.658181 -2.454590 -0.466899 -0.138952 -0.359326
0.0 0.0 0.0 -172.641883 25.846242 178.381469 10.440473 4.574401 0.237886 -0.058859 1.495383 -0.220664 2.987086 0.187183 0.533638 9.709322 0.649089 0.082309 16.124366 0.069199 -0.877056 -8.417815 4.253807 0.675962 2.824562 6.056403 2.051381 -30.608796 14.202543 -15.919639 -80.900237 -21.956092 37.922378 -6.063648 1.217374 -25.377233 -0.409391 -6.154745 -5.411178 -16.007469 13.151348 7.402454 -77.243805 24.598385 -53.605708 21.753965 -9.912004 -1.294341 -62.800714 -0.550265 5.263805 75.964189 -9.662988 1.359124 -9.161117 -3.575848 2.210406 0.781581 0.104681 0.125950 -63.533388 10.205607 13.259139 67.764759 13.683726 1.522166 -19.739916 -19.586387 -2.406912 -0.462379 -0.102847 -0.345290
0.0 0.0 0.0 -172.649560 25.875781 178.341485 10.451174 4.589518 0.263403 -0.060831 1.485347 -0.246375 2.978624 0.186101 0.513293 9.673401 0.657624 0.054715 16.134508 0.074684 -0.881902 -8.415778 4.289755 0.708976 2.896866 6.018267 2.068157 -30.495736 13.870094 -15.999008 -81.450955 -22.316557 37.420865 -6.178722 1.137838 -25.361162 -0.430805 -6.130175 -5.421893 -15.967218 13.522345 7.489244 -77.593790 25.023117 -53.427563 21.644897 -9.842735 -1.387923 -62.789615 -0.556419 5.286963 75.959545 -9.639860 1.374775 -9.146848 -3.616215 2.219831 0.797538 0.106849 0.152599 -63.526169 10.204070 13.235634 67.754698 13.708831 1.548414 -19.740655 -19.562731 -2.402368 -0.463540 -0.102292 -0.340908
0.0 0.0 0.0 -172.653590 25.861360 178.379775 10.367204 4.588597 0.189768 -0.108003 1.493507 -0.190813 2.920506 0.200487 0.575898 9.599296 0.686752 0.108867 16.092376 0.075359 -0.963824 -8.473881 4.329417 0.616212 2.918277 5.969780 2.011419 -30.454936 13.564909 -16.014606 -82.037853 -22.678403 37.090854 -6.307235 1.084009 -25.220704 -0.516319 -6.077265 -5.370043 -15.896326 13.882598 7.518541 -77.923285 25.567893 -53.394362 21.530336 -9.789390 -1.585061 -62.805987 -0.508050 5.268208 75.895040 -9.696540 1.337803 -9.172833 -3.626519 2.159665 0.746317 0.103833 0.074620 -63.566016 10.196614 13.257007 67.686280 13.667490 1.519921 -19.780603 -19.528307 -2.351912 -0.525599 -0.104848 -0.357058
